<svg width="149" height="135" viewBox="0 0 149 135" fill="none" xmlns="http://www.w3.org/2000/svg">
<path d="M79.5117 124.631C83.5149 124.644 88.1315 124.532 92.0742 124.677L92.1738 124.685C100.754 124.573 109.369 124.717 117.948 124.65C121.455 124.623 125.715 124.79 129.158 124.626C128.989 127.218 129.128 132.251 129.127 135L79.5312 134.985L79.5117 124.631ZM99.3574 58.793H99.3584L99.3457 60.5215H99.3437V61.8672L99.3545 63.4629L99.3388 84.5215L109.286 84.499L109.265 103.9C112.132 103.897 116.51 104.029 119.238 103.844C119.199 107.312 119.186 110.779 119.198 114.245L106.166 114.235L102.643 114.225H79.4902C79.4871 117.329 79.3612 121.611 79.5117 124.631C76.8242 124.46 72.4068 124.595 69.5908 124.599L69.6084 114.229C63.4096 114.151 57.1401 114.232 50.9072 114.217L48.2382 114.203C47.7176 114.239 46.8228 114.203 46.2724 114.2C37.5549 114.32 28.6734 114.232 19.9433 114.23L19.9531 103.891L29.874 103.88L29.8769 62.3311L39.7802 62.3213L39.7431 66.6357C39.7436 66.6367 39.7437 66.6378 39.7441 66.6387C39.749 67.1466 39.7765 67.912 39.7578 68.4346C39.7563 68.4748 39.7569 68.5137 39.7549 68.5508C39.8555 71.2124 39.7727 74.4501 39.7724 77.1475L39.748 93.5215C43.0065 93.4582 46.4316 93.5006 49.7021 93.4941C49.7134 96.9624 49.699 100.431 49.6582 103.899C52.9986 103.878 56.3392 103.882 59.6797 103.909L59.6562 51.9297C62.9072 51.9789 66.2937 51.9331 69.5537 51.9307C69.3861 65.6456 69.5464 77.7739 69.5449 91.5205C72.7845 91.4491 76.2459 91.5003 79.5009 91.4971L79.4814 103.899L89.4629 103.873L89.458 41.5381L99.3525 41.5352L99.3574 58.793ZM139.052 124.611C135.928 124.593 132.257 124.509 129.158 124.626C129.267 117.921 129.231 110.586 129.153 103.868C132.275 103.881 135.997 103.992 139.078 103.846L139.052 124.611ZM129.16 41.5322C128.915 54.321 129.133 67.9893 129.135 80.8643L129.127 96.1475C129.125 98.2784 129.021 101.831 129.153 103.868C126.432 103.708 122.07 103.839 119.238 103.844L119.24 41.54C122.547 41.5667 125.854 41.5642 129.16 41.5322ZM19.8965 103.852L10.0107 103.841L10.0058 96.7158L10.0254 93.4971L13.1474 93.5332L19.9052 93.4873L19.8965 103.852ZM148.997 41.542L148.995 63.5586C148.989 64.3924 149.01 65.4708 148.996 66.4111C148.992 66.7245 148.983 67.0225 148.969 67.291L148.982 103.847L139.078 103.846C139.199 101.116 139.109 97.8084 139.109 95.0186L139.107 78.8066C139.109 66.5711 139.308 53.7414 139.083 41.5508L148.997 41.542ZM9.99997 31.1514C9.56878 51.8549 10.3156 72.7703 9.94723 93.4922C6.77961 93.3672 3.2787 93.444 0.0868817 93.4473C0.0850197 79.149 0.260687 64.4123 0.0741864 50.1533C0.0744966 49.3652 0.0856732 48.5769 0.107389 47.7891C-0.113092 42.9015 0.0740665 36.195 0.0751629 31.1592L9.99997 31.1514ZM129.155 20.7676C131 20.7791 132.868 20.7766 134.71 20.8115C135.894 20.801 137.809 20.7239 138.934 20.8291L139.097 21.0322C139.019 27.4591 138.887 35.1856 139.083 41.5508C136.729 41.3473 131.598 41.5025 129.16 41.5322C129.275 34.8506 129.237 27.4622 129.155 20.7676ZM29.8564 20.7422C29.6285 27.0747 29.7862 35.076 29.8388 41.5049C26.5745 41.5065 23.1957 41.4627 19.9404 41.5137C19.9472 38.1664 19.8859 34.4398 19.9785 31.123C16.7743 31.129 13.1726 31.0545 9.99997 31.1514L10.0195 20.7842C16.431 20.7946 23.4956 20.9616 29.8564 20.7422ZM59.6338 10.3604C59.5832 17.2786 59.6896 24.2488 59.6006 31.1543C56.3091 31.1158 53.0172 31.1083 49.7256 31.1309C49.7305 27.7236 49.6849 24.1269 49.749 20.7344L29.8564 20.7422C29.9905 17.6048 29.883 13.5847 29.8808 10.3896C37.7982 10.5075 45.7383 10.3496 53.6572 10.4131C55.6295 10.4288 57.666 10.4449 59.6338 10.3604ZM119.237 10.3711C122.539 10.4212 125.843 10.4299 129.144 10.3975C129.138 12.5527 128.986 18.8805 129.155 20.7676C126.676 20.5949 121.888 20.7427 119.246 20.748L119.237 10.3711ZM98.0547 0.0361328L103.36 0.0136719L119.222 0.0107422C119.217 2.77515 119.076 7.77239 119.237 10.3711C117.22 10.2395 113.814 10.3478 111.676 10.3486L96.7568 10.3564L95.5293 10.3398L93.1406 10.3389H92.6201C91.7233 10.3461 90.448 10.1811 89.6738 10.4746C89.272 10.9105 89.4073 10.9388 89.3515 11.7314C89.3657 11.844 89.3778 11.953 89.3877 12.0586C89.4564 12.797 89.427 13.3904 89.4121 14.1777C89.4322 16.3593 89.4087 18.576 89.4072 20.7607C86.3831 20.6463 82.6028 20.7456 79.5244 20.748L79.542 10.334L59.6338 10.3604C59.777 7.40492 59.6607 3.05589 59.6591 0L98.0547 0.0361328Z" fill="currentColor"/>
</svg>
